<svg id="_x31__x2C_5" height="512" viewBox="0 0 24 24" width="512" xmlns="http://www.w3.org/2000/svg"><path d="m11.28 7.562-.53-.53c-.644-.646-1.802-.644-2.445 0l-1.153 1.152c-.322.322-.508.768-.508 1.223s.185.901.507 1.222l.531.531c.108.108.255.169.408.169s.3-.061.408-.169l2.783-2.783c.108-.108.169-.255.169-.408-.001-.153-.061-.299-.17-.407z" fill="#cfd8dc"/><path d="m15.679 12.226-.257-.257-.162-1.529c-.055-.523-.29-1.015-.661-1.385l-1.012-1.012c-.55-.551-1.526-.551-2.075 0l-3.346 3.346c-.275.275-.427.644-.427 1.039s.152.764.427 1.038l1.012 1.012c.371.372.863.606 1.385.661l1.529.161.257.257c.275.275.643.427 1.038.427.393 0 .762-.151 1.038-.427l1.255-1.254c.275-.275.427-.644.427-1.039-.001-.395-.153-.764-.428-1.038z" fill="#00bcd4"/><path d="m7.88 12.25c-.192 0-.384-.073-.53-.22l-.69-.69c-.419-.418-.66-.997-.66-1.59s.241-1.172.661-1.591l1.499-1.499c.836-.838 2.343-.839 3.181.001l.689.689c.293.292.293.768 0 1.061-.292.293-.767.293-1.061 0l-.69-.689c-.281-.283-.778-.282-1.057-.002l-1.501 1.501c-.141.14-.221.333-.221.529s.08.389.22.528l.69.691c.293.293.293.769 0 1.061-.146.147-.339.22-.53.22z"/><path d="m13.75 17c-.471 0-.911-.181-1.24-.51l-.308-.308-1.827-.192c-.623-.065-1.212-.346-1.655-.79l-1.21-1.21c-.329-.329-.51-.769-.51-1.24s.181-.911.51-1.24l4-4c.658-.658 1.822-.658 2.48 0l1.21 1.21c.444.443.725 1.032.79 1.656l.192 1.826.308.308c.329.329.51.77.51 1.24s-.181.911-.51 1.24l-1.5 1.5c-.329.329-.769.51-1.24.51zm-1-8.5c-.09 0-.147.038-.18.07l-4 4c-.032.032-.07.09-.07.18s.038.147.07.18l1.21 1.21c.201.201.469.329.752.358l2.092.221c.17.019.33.095.451.216l.495.495c.064.064.295.064.359 0l1.5-1.5c.032-.032.07-.09.07-.18s-.038-.147-.07-.18l-.495-.495c-.121-.121-.197-.281-.216-.451l-.221-2.091c-.029-.284-.157-.552-.358-.753l-1.21-1.21c-.032-.032-.089-.07-.179-.07z"/><path d="m17.25 18c-.192 0-.384-.073-.53-.22l-1.75-1.75c-.293-.293-.293-.768 0-1.061s.768-.293 1.061 0l1.75 1.75c.293.293.293.768 0 1.061-.147.147-.339.22-.531.22z"/><path d="m21.25 6h-2.5c-.414 0-.75-.336-.75-.75s.336-.75.75-.75h1.75v-1.75c0-.414.336-.75.75-.75s.75.336.75.75v2.5c0 .414-.336.75-.75.75z"/><path d="m12 24c-6.617 0-12-5.383-12-12s5.383-12 12-12c3.678 0 7.096 1.652 9.379 4.534.257.325.202.797-.122 1.054-.324.258-.796.202-1.054-.122-1.997-2.521-4.986-3.966-8.203-3.966-5.79 0-10.5 4.71-10.5 10.5s4.71 10.5 10.5 10.5 10.5-4.71 10.5-10.5c0-.491-.029-.937-.09-1.362-.059-.41.227-.789.637-.848.4-.071.79.226.848.637.071.496.105 1.011.105 1.573 0 6.617-5.383 12-12 12z"/></svg>